<?xml version="1.0" encoding="UTF-8" standalone="no"?>
<!-- Created with Inkscape (http://www.inkscape.org/) -->

<svg
   xmlns:dc="http://purl.org/dc/elements/1.1/"
   xmlns:cc="http://creativecommons.org/ns#"
   xmlns:rdf="http://www.w3.org/1999/02/22-rdf-syntax-ns#"
   xmlns:svg="http://www.w3.org/2000/svg"
   xmlns="http://www.w3.org/2000/svg"
   xmlns:sodipodi="http://sodipodi.sourceforge.net/DTD/sodipodi-0.dtd"
   xmlns:inkscape="http://www.inkscape.org/namespaces/inkscape"
   width="212.59842"
   height="124.01575"
   id="svg4127"
   version="1.1"
   inkscape:version="0.48.2 r9819"
   sodipodi:docname="ibre_ram.svg"
   inkscape:export-filename="C:\Users\SAMSUNG\Desktop\ibre_ram.png"
   inkscape:export-xdpi="600.16571"
   inkscape:export-ydpi="600.16571">
  <defs
     id="defs4129">
    <inkscape:path-effect
       effect="bend_path"
       id="path-effect3322"
       is_visible="true"
       bendpath="m 1.0657413,22.249191 c 41.5731117,-28.2445997 96.1767277,-28.2445997 137.7498487,0"
       prop_scale="1"
       scale_y_rel="false"
       vertical="false" />
    <inkscape:path-effect
       effect="bend_path"
       id="path-effect3044"
       is_visible="true"
       bendpath="m 37.940741,975.1956 c 41.573113,-28.24458 96.176739,-28.24458 137.749849,0"
       prop_scale="1"
       scale_y_rel="false"
       vertical="false" />
    <inkscape:path-effect
       effect="ruler"
       id="path-effect4938"
       is_visible="true"
       unit="mm"
       mark_distance="1.03"
       mark_length="4"
       minor_mark_length="2"
       major_mark_steps="10"
       shift="0"
       offset="0"
       mark_dir="left"
       border_marks="none" />
    <inkscape:path-effect
       effect="ruler"
       id="path-effect4137"
       is_visible="true"
       unit="px"
       mark_distance="20"
       mark_length="14"
       minor_mark_length="7"
       major_mark_steps="4"
       shift="0"
       offset="0"
       mark_dir="left"
       border_marks="both" />
    <inkscape:path-effect
       effect="ruler"
       id="path-effect4137-1"
       is_visible="true"
       unit="px"
       mark_distance="20"
       mark_length="14"
       minor_mark_length="0"
       major_mark_steps="4"
       shift="0"
       offset="0"
       mark_dir="left"
       border_marks="both" />
  </defs>
  <sodipodi:namedview
     id="base"
     pagecolor="#ffffff"
     bordercolor="#666666"
     borderopacity="1.0"
     inkscape:pageopacity="0.0"
     inkscape:pageshadow="2"
     inkscape:zoom="3.959798"
     inkscape:cx="136.12441"
     inkscape:cy="93.814398"
     inkscape:document-units="mm"
     inkscape:current-layer="text4944"
     showgrid="false"
     units="mm"
     width="60mm"
     inkscape:snap-object-midpoints="true"
     inkscape:snap-midpoints="false"
     inkscape:snap-center="false"
     inkscape:window-width="1920"
     inkscape:window-height="1018"
     inkscape:window-x="-32000"
     inkscape:window-y="-32000"
     inkscape:window-maximized="1" />
  <metadata
     id="metadata4132">
    <rdf:RDF>
      <cc:Work
         rdf:about="">
        <dc:format>image/svg+xml</dc:format>
        <dc:type
           rdf:resource="http://purl.org/dc/dcmitype/StillImage" />
        <dc:title></dc:title>
      </cc:Work>
    </rdf:RDF>
  </metadata>
  <g
     inkscape:label="Layer 1"
     inkscape:groupmode="layer"
     id="layer1"
     transform="translate(0,-928.34642)">
    <path
       style="fill:none;stroke:#000000;stroke-width:1px;stroke-linecap:butt;stroke-linejoin:miter;stroke-opacity:1"
       d="m 80.812204,274.54472 446.487426,0 m -446.487426,0 0,-14 m 19.999996,14 0,-7 m 20,7 0,-7 m 20,7 0,-7 m 20,7 0,-14 m 20,14 0,-7 m 20,7 0,-7 m 20,7 0,-7 m 20,7 0,-14 m 20,14 0,-7 m 20,7 0,-7 m 20,7 0,-7 m 20,7 0,-14 m 20,14 0,-7 m 20,7 0,-7 m 20,7 0,-7 m 20,7 0,-14 m 20,14 0,-7 m 20,7 0,-7 m 20,7 0,-7 m 20,7 0,-14 m 20,14 0,-7 m 20,7 0,-7 m 6.48743,7 0,-14"
       id="path4135"
       inkscape:connector-curvature="0" />
    <path
       style="fill:none;stroke:#000000;stroke-width:1px;stroke-linecap:butt;stroke-linejoin:miter;stroke-opacity:1"
       d="m -78.791899,740.15398 446.487429,0 m -446.487429,0 0,-14 m 19.999997,14 z m 20,0 z m 20,0 z m 19.9999998,0 0,-14 m 20.0000002,14 z m 20,0 z m 20,0 z m 20,0 0,-14 m 20.000002,14 z m 20,0 z m 20,0 z m 20,0 0,-14 m 20,14 z m 20,0 z m 20,0 z m 20,0 0,-14 m 20,14 z m 20,0 z m 20,0 z m 20,0 0,-14 m 20,14 z m 20,0 z m 6.48743,0 0,-14"
       id="path4135-7"
       inkscape:connector-curvature="0" />
    <path
       style="fill:none;stroke:#000000;stroke-width:2.1314826px;stroke-linecap:butt;stroke-linejoin:miter;stroke-opacity:1"
       d="m 50.137216,916.9555 c 41.573112,-28.2446 96.176724,-28.2446 137.749844,0"
       id="path4164"
       inkscape:connector-curvature="0" />
    <path
       sodipodi:type="arc"
       style="fill:none"
       id="path4934"
       sodipodi:cx="121.96429"
       sodipodi:cy="115.08717"
       sodipodi:rx="176.60715"
       sodipodi:ry="97.85714"
       d="m 298.57143,115.08717 c 0,54.04501 -79.06971,97.85714 -176.60714,97.85714 -97.537437,0 -176.60715,-43.81213 -176.60715,-97.85714 0,-54.045002 79.069713,-97.857136 176.60715,-97.857136 97.53743,0 176.60714,43.812134 176.60714,97.857136 z"
       transform="translate(0,928.34642)" />
    <path
       style="fill:none;stroke:#000000;stroke-width:1.10784793px;stroke-linecap:butt;stroke-linejoin:miter;stroke-opacity:1"
       d="m 37.940741,975.1956 c 20.166519,-13.70104 44.494463,-21.18343 68.874929,-21.18344 24.38046,10e-6 48.7084,7.4824 68.87492,21.18344 m -137.749849,0 -7.9649,-11.72351 m 11.014561,9.71897 -3.801776,-5.98051 m 6.910956,4.0696 -3.618907,-6.09292 m 6.784351,4.27672 -3.433965,-6.19903 m 6.652459,4.47858 -3.247048,-6.29895 m 6.515423,4.67526 -3.058228,-6.39275 m 6.373355,4.86678 -2.867563,-6.48052 m 6.226349,5.05322 -2.675087,-6.56232 m 6.07447,5.23459 -2.480821,-6.63819 m 5.917764,5.41098 -2.284774,-6.7082 m 5.756267,5.5824 -4.173888,-13.5447 m 7.676917,12.52125 -1.88732,-6.83067 m 5.418882,5.91049 -1.685887,-6.88316 m 5.242971,6.06719 -1.482626,-6.92978 m 5.062206,6.21897 -1.27752,-6.97051 m 4.876544,6.3658 -1.070555,-7.00529 m 4.685938,6.50765 -0.861725,-7.03403 m 4.490338,6.64441 -0.651031,-7.05664 m 4.289694,6.77601 -0.438489,-7.07303 m 4.083964,6.90233 -0.22413,-7.08307 m 3.8731,7.02322 -0.016,-14.17322 m 3.66511,14.22486 0.20824,-7.08356 m 3.43761,7.24611 0.42273,-7.074 m 3.21654,7.34655 0.63541,-7.05807 m 2.99406,7.43967 0.84624,-7.0359 m 2.77022,7.52561 1.05521,-7.00762 m 2.54513,7.60446 1.26231,-6.97329 m 2.31881,7.67631 1.46755,-6.933 m 2.0913,7.74124 1.67095,-6.8868 m 1.8626,7.79932 1.87251,-6.83475 m 1.63272,7.85061 4.14455,-13.55371 m -0.67063,14.67199 2.27024,-6.71314 m 1.16936,7.9329 2.46642,-6.64356 m 0.93584,7.9639 2.66081,-6.56812 m 0.70107,7.98811 2.85343,-6.48676 m 0.46503,8.00548 3.04422,-6.39944 m 0.22771,8.01595 3.23318,-6.30608 m -0.0109,8.01942 3.42024,-6.20662 m -0.25077,8.01579 3.60533,-6.10096 m -0.49189,8.00492 3.78836,-5.98903 m -0.73419,7.9867 7.93839,-11.74148"
       id="path4936"
       inkscape:connector-curvature="0"
       inkscape:path-effect="#path-effect3044;#path-effect4938"
       inkscape:original-d="m 65.700931,1968.6482 146.435459,0" />
    <text
       xml:space="preserve"
       style="font-size:40px;font-style:normal;font-weight:normal;line-height:125%;letter-spacing:-2.51999985000000000px;word-spacing:0px;fill:#000000;fill-opacity:1;stroke:none;font-family:Calibri;-inkscape-font-specification:Calibri;font-stretch:normal;font-variant:normal"
       x="23.738585"
       y="-56.296482"
       id="text4940"
       sodipodi:linespacing="125%"
       transform="translate(0,928.34642)"><tspan
         sodipodi:role="line"
         id="tspan4942"
         x="23.738585"
         y="-56.296482" /></text>
    <g
       style="font-size:32px;font-style:normal;font-weight:normal;line-height:125%;letter-spacing:0px;word-spacing:0px;fill:#000000;fill-opacity:1;stroke:none;font-family:Sans"
       id="text4944"
       inkscape:path-effect="#path-effect3322"
       transform="matrix(0.99950966,0.03131211,-0.03131211,0.99950966,40.91994,959.40032)">
      <path
         d="m 7.2814207,20.248273 c 0.6761636,1.11847 0.972862,2.133698 0.9060795,3.042449 C 8.1207123,24.199487 7.6887159,24.902289 6.8853198,25.4176 6.0857432,25.93046 5.2645161,26.029849 4.4018489,25.71427 3.5391725,25.398685 2.7370229,24.709145 2.0052904,23.63211 L 0.12620905,20.866297 c -0.73172278,-1.077018 -1.07155477,-2.08305 -1.00321101,-3.021639 0.0683573,-0.938562 0.54843189,-1.701895 1.43440408,-2.26978 0.88175708,-0.56516 1.77557168,-0.682598 2.66110118,-0.355591 0.8855347,0.327039 1.6599528,1.054207 2.333429,2.168203 z M 5.2164856,17.591004 C 4.6206809,16.612586 3.9355461,15.960464 3.1529351,15.644864 2.3703233,15.329288 1.5755928,15.423279 0.78510019,15.929958 c -0.79469359,0.509396 -1.21201488,1.192446 -1.24776925,2.032684 -0.0357472,0.840257 0.27310422,1.733796 0.91392511,2.683635 l 1.86131335,2.758889 c 0.6320877,0.936901 1.3385661,1.558843 2.1112745,1.876383 0.7727062,0.317542 1.5119168,0.243965 2.2338204,-0.219057 C 7.3757215,24.601937 7.7479268,23.964086 7.7792549,23.133919 7.8105671,22.303749 7.5374147,21.402445 6.9470339,20.43291 6.3701845,19.485608 5.793335,18.538306 5.2164856,17.591004 z"
         style="font-size:16px;font-variant:normal;font-weight:200;font-stretch:normal;word-spacing:-2px;font-family:Roboto Th;-inkscape-font-specification:Roboto Th Ultra-Light"
         id="path3291"
         inkscape:original-d="m 29.309492,875.35791 c -8e-6,1.30729 -0.302091,2.33073 -0.90625,3.07031 -0.604173,0.73959 -1.45313,1.10938 -2.546875,1.10938 -1.088545,0 -1.940107,-0.3711 -2.554687,-1.11328 -0.614585,-0.74219 -0.921876,-1.76432 -0.921875,-3.06641 l 0,-3.34375 c -1e-6,-1.30207 0.303384,-2.32421 0.910156,-3.06641 0.606768,-0.74217 1.457028,-1.11327 2.550781,-1.11328 1.088536,10e-6 1.938796,0.37111 2.550781,1.11328 0.611972,0.7422 0.917961,1.76434 0.917969,3.06641 z m -0.421875,-3.34375 c -7e-6,-1.14582 -0.263028,-2.05858 -0.789062,-2.73828 -0.526048,-0.67968 -1.278652,-1.01952 -2.257813,-1.01953 -0.984378,10e-6 -1.736982,0.33985 -2.257812,1.01953 -0.520835,0.6797 -0.781252,1.59246 -0.78125,2.73828 l 0,3.32813 c -2e-6,1.13021 0.264321,2.04166 0.792968,2.73437 0.528644,0.69271 1.282549,1.03906 2.261719,1.03906 0.973953,0 1.72265,-0.34505 2.246094,-1.03515 0.52343,-0.69011 0.785149,-1.60287 0.785156,-2.73828 z"
         inkscape:connector-curvature="0" />
      <path
         d="m 34.03078,12.448078 c -1.889818,0.609918 -3.764297,1.26721 -5.620878,1.971089 l -0.149559,-0.394415 c 0.53509,-1.795687 1.115979,-3.591351 1.742743,-5.3850604 0.33386,-0.9645823 0.546125,-1.7431224 0.622131,-2.3369617 0.076,-0.5938165 0.03552,-1.1356654 -0.126587,-1.6250898 -0.26528,-0.8008536 -0.660741,-1.354753 -1.191597,-1.656911 -0.530861,-0.3021354 -1.203055,-0.3148792 -2.007239,-0.031132 -0.841809,0.2970441 -1.39805,0.792538 -1.663236,1.4740941 -0.265182,0.6815763 -0.239192,1.4295033 0.06783,2.2431593 -0.104878,0.039577 -0.209704,0.079294 -0.314476,0.1191503 -0.01011,-0.012876 -0.02023,-0.025752 -0.03035,-0.038626 -0.350584,-0.8528073 -0.375232,-1.6831321 -0.05896,-2.4904313 0.316275,-0.8072697 0.938787,-1.380519 1.858824,-1.7051687 0.844545,-0.2979906 1.605928,-0.2755832 2.271933,0.061751 0.666,0.3373575 1.146796,0.9725356 1.450085,1.8979481 0.196239,0.5988163 0.214114,1.2693248 0.0629,2.0111916 -0.151228,0.7418705 -0.410275,1.6336736 -0.763327,2.6767285 -0.514761,1.5208583 -0.996826,3.0428803 -1.446244,4.5649103 0.0089,0.0106 0.01771,0.0212 0.02656,0.03181 1.699247,-0.635505 3.413184,-1.232191 5.13988,-1.789465 z"
         style="font-size:16px;font-variant:normal;font-weight:200;font-stretch:normal;word-spacing:-2px;font-family:Roboto Th;-inkscape-font-specification:Roboto Th Ultra-Light"
         id="path3293"
         inkscape:original-d="m 60.36418,879.37354 -6.804688,0 0,-0.42188 3.882813,-4.46875 c 0.692702,-0.80208 1.179681,-1.47265 1.460937,-2.01172 0.281243,-0.53905 0.421868,-1.0664 0.421875,-1.58203 -7e-6,-0.84374 -0.213548,-1.49348 -0.640625,-1.94922 -0.427089,-0.45572 -1.085943,-0.68358 -1.976562,-0.68359 -0.932295,10e-6 -1.653649,0.27345 -2.164063,0.82031 -0.510418,0.54688 -0.765626,1.25522 -0.765625,2.125 l -0.359375,0 -0.01563,-0.0469 c -0.02604,-0.92187 0.264322,-1.70572 0.871094,-2.35157 0.606768,-0.64582 1.417965,-0.96874 2.433594,-0.96875 0.932286,10e-6 1.673171,0.26564 2.222656,0.79688 0.549472,0.53126 0.824211,1.28386 0.824219,2.25781 -8e-6,0.63022 -0.204435,1.27344 -0.613282,1.92969 -0.40886,0.65625 -0.985683,1.41927 -1.730468,2.28906 l -3.257813,3.80469 0.01563,0.0391 6.195313,0 z"
         inkscape:connector-curvature="0" />
      <path
         d="M 34.41752,6.9074323 C 33.992997,4.8755048 33.577486,2.8412705 33.171005,0.80479112 c 1.651435,-0.49458039 3.312719,-0.95629969 4.98258,-1.38476708 l 0.102912,0.40101274 c -1.546332,0.39677576 -3.08529,0.82215659 -4.615855,1.27582912 0.311673,1.5860219 0.628847,3.1706933 0.951512,4.7539849 0.195004,-0.4011032 0.44228,-0.7324819 0.740638,-0.9930844 0.298356,-0.2605915 0.782376,-0.4981391 1.452233,-0.7059482 0.803554,-0.2503239 1.556514,-0.1295124 2.243937,0.3588636 0.687415,0.4883988 1.159269,1.2642753 1.426478,2.3193632 0.285094,1.1257707 0.273473,2.0788289 -0.02177,2.8603586 -0.295255,0.7815334 -0.921189,1.2986464 -1.885882,1.5686054 -0.776146,0.217196 -1.489976,0.153472 -2.153458,-0.194846 -0.663484,-0.348307 -1.138513,-1.01225 -1.415659,-2.0003247 -9.2e-5,-0.016315 -1.83e-4,-0.032631 -2.71e-4,-0.048947 0.105076,-0.032058 0.210196,-0.063973 0.315359,-0.095747 0.259062,0.8574546 0.669106,1.4428974 1.223801,1.7620284 0.554692,0.319132 1.190453,0.374767 1.916556,0.171577 0.853712,-0.238901 1.408652,-0.673961 1.670157,-1.3185988 C 40.365766,8.889516 40.361986,8.0254214 40.083677,6.9409148 39.845483,6.0127841 39.450683,5.3339297 38.89176,4.9098078 38.332825,4.4856891 37.66987,4.376151 36.913315,4.5863738 c -0.742636,0.2063754 -1.286638,0.5091755 -1.629686,0.90025 -0.34305,0.3910858 -0.525895,0.8771136 -0.549933,1.455544 -0.105331,-0.011717 -0.210724,-0.023296 -0.316176,-0.034736 z"
         style="font-size:16px;font-variant:normal;font-weight:200;font-stretch:normal;word-spacing:-2px;font-family:Roboto Th;-inkscape-font-specification:Roboto Th Ultra-Light"
         id="path3295"
         inkscape:original-d="m 62.629805,874.20166 0.609375,-6.20312 5.390625,0 0,0.41406 -5.007813,0 -0.476562,4.82812 c 0.328122,-0.32812 0.686195,-0.57551 1.074218,-0.74218 0.388018,-0.16666 0.959632,-0.26041 1.714844,-0.28125 0.906244,-0.026 1.653639,0.28386 2.242188,0.92968 0.588534,0.64584 0.882804,1.51303 0.882812,2.60157 -8e-6,1.16146 -0.273445,2.08333 -0.820312,2.76562 -0.546882,0.68229 -1.393235,1.02344 -2.539063,1.02344 -0.921879,0 -1.687503,-0.26172 -2.296875,-0.78516 -0.609377,-0.52343 -0.901043,-1.29817 -0.875,-2.32422 l 0.01563,-0.0469 0.367188,0 c -2e-6,0.89583 0.249998,1.57552 0.75,2.03906 0.499997,0.46354 1.179683,0.69531 2.039062,0.69531 1.010411,0 1.751296,-0.27864 2.222656,-0.83593 0.471347,-0.55729 0.707024,-1.39584 0.707032,-2.51563 -8e-6,-0.95833 -0.235685,-1.71354 -0.707032,-2.26562 -0.47136,-0.55208 -1.131516,-0.82812 -1.980468,-0.82813 -0.833338,10e-6 -1.488285,0.13933 -1.964844,0.41797 -0.476565,0.27865 -0.819013,0.69141 -1.027344,1.23828 z"
         inkscape:connector-curvature="0" />
      <path
         d="m 58.742599,2.1068274 c -0.0082,-2.07538439 -0.0069,-4.1512333 0.0039,-6.2274851 1.718455,-0.153171 3.440349,-0.2715099 5.164412,-0.3546259 l 0.01988,0.4134868 c -1.596379,0.076946 -3.190914,0.1841982 -4.782586,0.3214431 -0.01329,1.6160165 -0.0208,3.23180398 -0.02252,4.8473332 0.271519,-0.35373277 0.580303,-0.6286658 0.924952,-0.82398764 0.344645,-0.19531151 0.86659,-0.33074443 1.564662,-0.39953707 0.83761,-0.0835399 1.550996,0.18644717 2.125805,0.80333942 0.574797,0.61691289 0.880201,1.47203179 0.928918,2.55924019 0.05197,1.1600399 -0.151611,2.090992 -0.597782,2.7967355 C 63.626016,6.7485141 62.909927,7.1285855 61.912094,7.1987553 61.109284,7.2552107 60.42376,7.0493271 59.84434,6.5749224 59.264916,6.100528 58.932959,5.3549326 58.859688,4.331542 c 0.0032,-0.015999 0.0064,-0.031998 0.0095,-0.047996 0.109299,-0.010317 0.218611,-0.020482 0.327937,-0.030496 0.08169,0.8918303 0.36572,1.5475275 0.844542,1.9715171 0.478817,0.42399 1.089647,0.6062611 1.840766,0.5534365 0.883125,-0.062108 1.513364,-0.3762023 1.898957,-0.9547288 C 64.167017,5.2447489 64.33749,4.3977958 64.283732,3.2795557 64.237711,2.3225527 63.988102,1.5780489 63.526205,1.0500155 63.064296,0.52198275 62.436903,0.28115682 61.653481,0.33486272 60.884469,0.38760063 60.290685,0.57490096 59.876104,0.88904716 59.461518,1.2032038 59.184875,1.6425609 59.045286,2.2042882 c -0.100807,-0.032613 -0.201702,-0.0651 -0.302687,-0.097461 z"
         style="font-size:16px;font-variant:normal;font-weight:200;font-stretch:normal;word-spacing:-2px;font-family:Roboto Th;-inkscape-font-specification:Roboto Th Ultra-Light"
         id="path3297"
         inkscape:original-d="m 89.817305,874.20166 0.609375,-6.20312 5.390625,0 0,0.41406 -5.007813,0 -0.476562,4.82812 c 0.328122,-0.32812 0.686195,-0.57551 1.074218,-0.74218 0.388018,-0.16666 0.959632,-0.26041 1.714844,-0.28125 0.906244,-0.026 1.653639,0.28386 2.242188,0.92968 0.588534,0.64584 0.882804,1.51303 0.882812,2.60157 -8e-6,1.16146 -0.273445,2.08333 -0.820312,2.76562 -0.546882,0.68229 -1.393235,1.02344 -2.539063,1.02344 -0.921879,0 -1.687503,-0.26172 -2.296875,-0.78516 -0.609377,-0.52343 -0.901043,-1.29817 -0.875,-2.32422 l 0.01563,-0.0469 0.367188,0 c -2e-6,0.89583 0.249998,1.57552 0.75,2.03906 0.499997,0.46354 1.179683,0.69531 2.039062,0.69531 1.010411,0 1.751296,-0.27864 2.222656,-0.83593 0.471347,-0.55729 0.707024,-1.39584 0.707032,-2.51563 -8e-6,-0.95833 -0.235685,-1.71354 -0.707032,-2.26562 -0.47136,-0.55208 -1.131516,-0.82812 -1.980468,-0.82813 -0.833338,10e-6 -1.488285,0.13933 -1.964844,0.41797 -0.476565,0.27865 -0.819013,0.69141 -1.027344,1.23828 z"
         inkscape:connector-curvature="0" />
      <path
         d="m 72.452968,2.7642334 c -0.02788,1.3068261 -0.320938,2.3232339 -0.863832,3.0551389 -0.425398,0.5735021 -0.972873,0.9203115 -1.648474,1.0459809 0,0 0,0 0,0 -0.186614,0.034578 -0.383065,0.052291 -0.589608,0.053296 -0.94976,0.00462 -1.696699,-0.3514432 -2.256473,-1.0799658 C 66.534801,5.1101508 66.22641,4.0984226 66.184962,2.7972202 l -0.106439,-3.34147052 c -0.04145,-1.30118228 0.209963,-2.33271538 0.769967,-3.08907928 0.560001,-0.7563338 1.373952,-1.144569 2.426668,-1.1504985 0.233182,-0.00131 0.455111,0.016474 0.665504,0.053172 0,0 0,0 0,0 0.734915,0.1286657 1.328113,0.4877752 1.773615,1.0712348 0.573032,0.7505234 0.837743,1.7794823 0.809989,3.08109066 z m -0.321064,-3.35032658 c 0.02072,-1.14550572 -0.208784,-2.06325912 -0.700993,-2.74898732 -0.369249,-0.5144099 -0.867338,-0.8376493 -1.490249,-0.9652181 0,0 0,0 0,0 -0.207429,-0.042355 -0.428624,-0.062983 -0.66326,-0.061671 -0.944256,0.0053 -1.662284,0.3592355 -2.142168,1.0499521 -0.479889,0.6907367 -0.697267,1.6107167 -0.664482,2.75588272 l 0.09522,3.32623058 c 0.03233,1.129565 0.296121,2.0330101 0.778845,2.7150015 0.482721,0.6819916 1.146539,1.0158855 2.004042,1.0116919 0.209127,-0.00102 0.406293,-0.022153 0.591801,-0.063578 0,0 0,0 0,0 0.571092,-0.127906 1.032257,-0.4481989 1.387684,-0.9648798 0.470873,-0.6845248 0.722795,-1.5921104 0.743346,-2.7272086 z"
         style="font-size:16px;font-variant:normal;font-weight:200;font-stretch:normal;word-spacing:-2px;font-family:Roboto Th;-inkscape-font-specification:Roboto Th Ultra-Light"
         id="path3299"
         inkscape:original-d="m 104.87199,875.35791 c -1e-5,1.30729 -0.30209,2.33073 -0.90625,3.07031 -0.60417,0.73959 -1.45313,1.10938 -2.54687,1.10938 -1.08855,0 -1.94011,-0.3711 -2.55469,-1.11328 -0.614585,-0.74219 -0.921876,-1.76432 -0.921875,-3.06641 l 0,-3.34375 c -1e-6,-1.30207 0.303384,-2.32421 0.910156,-3.06641 0.606768,-0.74217 1.457029,-1.11327 2.550779,-1.11328 1.08854,10e-6 1.9388,0.37111 2.55078,1.11328 0.61197,0.7422 0.91796,1.76434 0.91797,3.06641 z m -0.42187,-3.34375 c -1e-5,-1.14582 -0.26303,-2.05858 -0.78907,-2.73828 -0.52604,-0.67968 -1.27865,-1.01952 -2.25781,-1.01953 -0.98438,10e-6 -1.73698,0.33985 -2.25781,1.01953 -0.520835,0.6797 -0.781252,1.59246 -0.78125,2.73828 l 0,3.32813 c -2e-6,1.13021 0.264321,2.04166 0.792968,2.73437 0.528644,0.69271 1.282552,1.03906 2.261722,1.03906 0.97395,0 1.72265,-0.34505 2.24609,-1.03515 0.52343,-0.69011 0.78515,-1.60287 0.78516,-2.73828 z"
         inkscape:connector-curvature="0" />
      <path
         d="M 98.465061,-0.93952205 C 97.114804,0.06445833 95.930837,1.3046696 94.909109,2.7676423 93.887367,4.2306327 93.195182,5.9792595 92.793555,7.9965562 L 92.593754,9.0000999 C 92.47305,8.9760593 92.35231,8.9522078 92.231535,8.9285456 l 0.196659,-1.0041594 c 0.362292,-1.8499004 1.007445,-3.5369247 1.972178,-5.0461683 0.964721,-1.5092357 2.157443,-2.82426758 3.5912,-3.9256929 -2.101266,-0.4749243 -4.214512,-0.8973163 -6.337236,-1.2664058 l 0.07228,-0.4155333 c 2.289722,0.3981154 4.568427,0.8580417 6.833005,1.3788222 z"
         style="font-size:16px;font-variant:normal;font-weight:200;font-stretch:normal;word-spacing:-2px;font-family:Roboto Th;-inkscape-font-specification:Roboto Th Ultra-Light"
         id="path3301"
         inkscape:original-d="m 132.16105,868.42041 c -1.14063,1.28126 -2.09115,2.7422 -2.85156,4.38281 -0.76042,1.64063 -1.14063,3.48959 -1.14062,5.54688 l 0,1.02344 -0.42188,0 0,-1.02344 c 0,-1.88542 0.34896,-3.66406 1.04688,-5.33594 0.69791,-1.67187 1.65103,-3.20312 2.85937,-4.59375 l -6.75781,0 0,-0.42187 7.26562,0 z"
         inkscape:connector-curvature="0" />
      <path
         d="m 99.251746,5.1917947 c 0.678402,-1.9617511 1.365744,-3.9208624 2.061994,-5.87727327 1.67127,0.4229706 3.33406,0.87922531 4.98711,1.36837334 l -0.11747,0.39699873 c -1.53078,-0.45296609 -3.06993,-0.87763651 -4.61645,-1.273698 -0.54645,1.5211543 -1.08748,3.0439681 -1.623078,4.5684125 0.373198,-0.2441732 0.755488,-0.401681 1.145308,-0.472227 0.3898,-0.070539 0.92713,-0.02602 1.60869,0.1393962 0.81814,0.1975422 1.40237,0.6876493 1.74173,1.4596063 0.33933,0.771971 0.34613,1.6800623 0.034,2.7227681 -0.33307,1.11255 -0.83217,1.9245784 -1.48668,2.4437994 -0.65452,0.519218 -1.45715,0.641748 -2.42362,0.378302 -0.777586,-0.211958 -1.357489,-0.633019 -1.748132,-1.2724723 -0.390646,-0.6394438 -0.457602,-1.453048 -0.188405,-2.443286 0.0083,-0.014052 0.01657,-0.028104 0.02486,-0.042154 0.106627,0.02641 0.213217,0.052966 0.319772,0.079665 -0.217691,0.8688551 -0.166225,1.5817405 0.14604,2.140314 0.312264,0.5585731 0.829324,0.9326211 1.556767,1.1309111 0.85529,0.233138 1.55487,0.144584 2.11016,-0.274464 0.55528,-0.419051 0.99551,-1.1626213 1.31322,-2.2362705 0.2719,-0.9188421 0.28145,-1.7041133 0.0194,-2.3549757 -0.26206,-0.650865 -0.77483,-1.0851086 -1.53205,-1.2929518 -0.74328,-0.2039976 -1.36558,-0.2232988 -1.8607,-0.063709 -0.49513,0.1595995 -0.901478,0.482898 -1.218948,0.9669974 -0.08438,-0.064109 -0.16888,-0.1281301 -0.253506,-0.1920628 z"
         style="font-size:16px;font-variant:normal;font-weight:200;font-stretch:normal;word-spacing:-2px;font-family:Roboto Th;-inkscape-font-specification:Roboto Th Ultra-Light"
         id="path3303"
         inkscape:original-d="m 134.5048,874.20166 0.60938,-6.20312 5.39062,0 0,0.41406 -5.00781,0 -0.47656,4.82812 c 0.32812,-0.32812 0.68619,-0.57551 1.07422,-0.74218 0.38802,-0.16666 0.95963,-0.26041 1.71484,-0.28125 0.90625,-0.026 1.65364,0.28386 2.24219,0.92968 0.58853,0.64584 0.8828,1.51303 0.88281,2.60157 -1e-5,1.16146 -0.27344,2.08333 -0.82031,2.76562 -0.54688,0.68229 -1.39324,1.02344 -2.53906,1.02344 -0.92188,0 -1.68751,-0.26172 -2.29688,-0.78516 -0.60937,-0.52343 -0.90104,-1.29817 -0.875,-2.32422 l 0.0156,-0.0469 0.36718,0 c 0,0.89583 0.25,1.57552 0.75,2.03906 0.5,0.46354 1.17969,0.69531 2.03907,0.69531 1.01041,0 1.75129,-0.27864 2.22265,-0.83593 0.47135,-0.55729 0.70703,-1.39584 0.70703,-2.51563 0,-0.95833 -0.23568,-1.71354 -0.70703,-2.26562 -0.47136,-0.55208 -1.13151,-0.82812 -1.98047,-0.82813 -0.83333,10e-6 -1.48828,0.13933 -1.96484,0.41797 -0.47656,0.27865 -0.81901,0.69141 -1.02734,1.23828 z"
         inkscape:connector-curvature="0" />
      <path
         d="m 120.04608,18.062847 c -0.11125,-0.05256 -0.22257,-0.104943 -0.33398,-0.157153 l 4.72363,-10.0779324 c -0.91735,-0.2057563 -1.8349,-0.4007419 -2.75241,-0.5850309 l 0.1455,-0.3285246 c 1.04907,0.2254885 2.09788,0.4649364 3.14606,0.7184434 z"
         style="font-size:16px;font-variant:normal;font-weight:200;font-stretch:normal;word-spacing:-2px;font-family:Roboto Th;-inkscape-font-specification:Roboto Th Ultra-Light"
         id="path3305"
         inkscape:original-d="m 161.27824,879.37354 -0.42187,0 0,-11.13282 -2.875,0.60938 0,-0.35938 3.29687,-0.65625 z"
         inkscape:connector-curvature="0" />
      <path
         d="m 131.18491,19.406075 c -0.66064,1.127663 -1.41148,1.872553 -2.24213,2.247015 -0.83066,0.374466 -1.65455,0.329556 -2.49089,-0.131552 -0.83238,-0.458919 -1.3116,-1.134062 -1.44541,-2.043027 -0.1338,-0.908973 0.0904,-1.942525 0.68883,-3.098502 l 1.53686,-2.968533 c 0.59846,-1.155959 1.32092,-1.933718 2.17814,-2.32097 0.85719,-0.387225 1.75617,-0.329466 2.67705,0.178058 0.91648,0.505125 1.44567,1.234402 1.58041,2.168498 0.13472,0.934117 -0.13511,1.961526 -0.7931,3.084696 z m 1.35093,-3.082079 c 0.57587,-0.990229 0.82233,-1.903359 0.72665,-2.741576 -0.0957,-0.8382 -0.55705,-1.491622 -1.37871,-1.944489 -0.82606,-0.455264 -1.62472,-0.496208 -2.38004,-0.127183 -0.75534,0.369037 -1.39365,1.066059 -1.92351,2.081628 l -1.53901,2.949805 c -0.52264,1.001734 -0.7329,1.918999 -0.64371,2.749745 0.0892,0.830742 0.50654,1.445962 1.258,1.86027 0.74746,0.412099 1.48573,0.435396 2.2304,0.06723 0.74467,-0.368174 1.40661,-1.038022 1.97726,-2.019245 z"
         style="font-size:16px;font-variant:normal;font-weight:200;font-stretch:normal;word-spacing:-2px;font-family:Roboto Th;-inkscape-font-specification:Roboto Th Ultra-Light"
         id="path3307"
         inkscape:original-d="m 173.05949,875.35791 c -1e-5,1.30729 -0.30209,2.33073 -0.90625,3.07031 -0.60417,0.73959 -1.45313,1.10938 -2.54687,1.10938 -1.08855,0 -1.94011,-0.3711 -2.55469,-1.11328 -0.61458,-0.74219 -0.92188,-1.76432 -0.92188,-3.06641 l 0,-3.34375 c 0,-1.30207 0.30339,-2.32421 0.91016,-3.06641 0.60677,-0.74217 1.45703,-1.11327 2.55078,-1.11328 1.08854,10e-6 1.9388,0.37111 2.55078,1.11328 0.61197,0.7422 0.91796,1.76434 0.91797,3.06641 z m -0.42187,-3.34375 c -1e-5,-1.14582 -0.26303,-2.05858 -0.78907,-2.73828 -0.52604,-0.67968 -1.27865,-1.01952 -2.25781,-1.01953 -0.98438,10e-6 -1.73698,0.33985 -2.25781,1.01953 -0.52084,0.6797 -0.78125,1.59246 -0.78125,2.73828 l 0,3.32813 c 0,1.13021 0.26432,2.04166 0.79297,2.73437 0.52864,0.69271 1.28255,1.03906 2.26172,1.03906 0.97395,0 1.72265,-0.34505 2.24609,-1.03515 0.52343,-0.69011 0.78515,-1.60287 0.78516,-2.73828 z"
         inkscape:connector-curvature="0" />
      <path
         d="m 137.87604,23.63211 c -0.73466,1.081331 -1.53367,1.774627 -2.38729,2.093061 -0.85363,0.318436 -1.67222,0.218927 -2.47552,-0.296525 -0.79949,-0.513006 -1.23247,-1.218248 -1.30562,-2.134039 -0.0731,-0.915798 0.21882,-1.932317 0.8923,-3.046335 l 1.72949,-2.860783 c 0.67347,-1.114 1.44579,-1.842412 2.32708,-2.172099 0.88127,-0.329661 1.77511,-0.212382 2.66112,0.355432 0.88178,0.565125 1.36199,1.328371 1.43454,2.269692 0.0725,0.941341 -0.2653,1.948759 -0.99702,3.025783 z m 1.55404,-2.98583 c 0.64081,-0.949845 0.94765,-1.844759 0.90773,-2.687758 -0.0399,-0.842982 -0.45738,-1.525958 -1.24789,-2.032606 -0.79473,-0.509332 -1.58948,-0.60318 -2.36784,-0.284952 -0.77839,0.318241 -1.46143,0.97162 -2.05723,1.950041 l -1.73055,2.841907 c -0.58768,0.965091 -0.85813,1.866495 -0.82429,2.70131 0.0338,0.834811 0.40912,1.476206 1.13094,1.939357 0.71797,0.460683 1.45268,0.532935 2.22012,0.215053 0.76743,-0.317895 1.47269,-0.942258 2.1077,-1.883463 z"
         style="font-size:16px;font-variant:normal;font-weight:200;font-stretch:normal;word-spacing:-2px;font-family:Roboto Th;-inkscape-font-specification:Roboto Th Ultra-Light"
         id="path3309"
         inkscape:original-d="m 181.80949,875.35791 c -1e-5,1.30729 -0.30209,2.33073 -0.90625,3.07031 -0.60417,0.73959 -1.45313,1.10938 -2.54687,1.10938 -1.08855,0 -1.94011,-0.3711 -2.55469,-1.11328 -0.61458,-0.74219 -0.92188,-1.76432 -0.92188,-3.06641 l 0,-3.34375 c 0,-1.30207 0.30339,-2.32421 0.91016,-3.06641 0.60677,-0.74217 1.45703,-1.11327 2.55078,-1.11328 1.08854,10e-6 1.9388,0.37111 2.55078,1.11328 0.61197,0.7422 0.91796,1.76434 0.91797,3.06641 z m -0.42187,-3.34375 c -1e-5,-1.14582 -0.26303,-2.05858 -0.78907,-2.73828 -0.52604,-0.67968 -1.27865,-1.01952 -2.25781,-1.01953 -0.98438,10e-6 -1.73698,0.33985 -2.25781,1.01953 -0.52084,0.6797 -0.78125,1.59246 -0.78125,2.73828 l 0,3.32813 c 0,1.13021 0.26432,2.04166 0.79297,2.73437 0.52864,0.69271 1.28255,1.03906 2.26172,1.03906 0.97395,0 1.72265,-0.34505 2.24609,-1.03515 0.52343,-0.69011 0.78515,-1.60287 0.78516,-2.73828 z"
         inkscape:connector-curvature="0" />
      <text
         xml:space="preserve"
         style="font-size:32px;font-style:normal;font-weight:normal;line-height:125%;letter-spacing:0px;word-spacing:0px;fill:#000000;fill-opacity:1;stroke:none;font-family:Sans"
         x="43.689098"
         y="54.062683"
         id="text3389"
         sodipodi:linespacing="125%"
         transform="matrix(0.99950965,-0.03131211,0.03131211,0.99950965,-41.872238,-29.757383)"><tspan
           sodipodi:role="line"
           id="tspan3391"></tspan></text>
      <text
         xml:space="preserve"
         style="font-size:32px;font-style:normal;font-variant:normal;font-weight:bold;font-stretch:normal;line-height:125%;letter-spacing:0px;word-spacing:0px;fill:#000000;fill-opacity:1;stroke:none;font-family:Arial;-inkscape-font-specification:Arial Bold"
         x="14.133375"
         y="54.070972"
         id="text52555"
         sodipodi:linespacing="125%"
         transform="matrix(0.99950966,-0.03131211,0.03131211,0.99950966,0,0)"><tspan
           sodipodi:role="line"
           id="tspan52557"
           x="14.133375"
           y="54.070972">RAM %</tspan></text>
    </g>
  </g>
</svg>
